<svg xmlns="http://www.w3.org/2000/svg" width="20.238" height="24.75" viewBox="0 0 20.238 24.75"><defs><style>.a{fill:#2c2e36;}</style></defs><g transform="translate(0 0)"><path class="a" d="M19.42,74.958l1.032-1.241a1.5,1.5,0,0,0-.338-2.077,1.749,1.749,0,0,0-.739-.362,1.572,1.572,0,0,0-.3-2.1,1.591,1.591,0,0,0-2.237.205l-.428.514a1.562,1.562,0,0,0-1.61-1.033A1.582,1.582,0,0,0,12.8,67.619a1.577,1.577,0,0,0-.945.764l-.32.587a1.569,1.569,0,0,0-.589-.57,1.59,1.59,0,0,0-2.154.635L7.121,72.1a2.306,2.306,0,0,0-1.781.327.863.863,0,0,0-.242,1.2l.656.99-.058.106-1.266-1.1A2.316,2.316,0,0,0,1.157,73.6a.863.863,0,0,0-.006,1.22l.933.943c1.247,1.259,1.47,1.641,1.232,3.178L3.03,80.644a.4.4,0,0,0-.532.163l-1.95,3.58a.4.4,0,0,0,.16.542L8.166,88.99a.4.4,0,0,0,.542-.16l.144-.264.38.316a.4.4,0,0,0,.562-.052L12.4,85.7a.4.4,0,0,0-.051-.562l-.036-.029.664-.8a2.618,2.618,0,0,0,2.109-.942l5.1-6.125a1.42,1.42,0,0,0-.184-2A1.4,1.4,0,0,0,19.42,74.958Zm-6.867-6.194a.786.786,0,0,1,1.478.378,1.563,1.563,0,0,0-.32.284L9.576,74.4l-.054-.069Zm-3.063.653a.79.79,0,1,1,1.387.755l-.03.056L8.988,73.641l-.441-.567a2.3,2.3,0,0,0-.684-.67ZM2.652,75.2l-.934-.943a.071.071,0,0,1,0-.09,1.467,1.467,0,0,1,1.074-.439,1.529,1.529,0,0,1,1.091.47l1.663,1.446a.4.4,0,0,0,.612-.11l.086-.157a2.529,2.529,0,0,1,.178,2.706L5.811,79.7a.4.4,0,0,0-.553.056L4.055,81.2l-.283-.154.333-1.98C4.386,77.25,4.048,76.609,2.652,75.2ZM8.2,88.1l-6.757-3.68L3,81.562a.394.394,0,0,0,.131.123l.361.2-.838,1.007a.4.4,0,0,0,.052.562l5.523,4.595Zm1.237-.085L3.52,83.092l2.08-2.5a.393.393,0,0,0,.1.146l5.745,4.779a.416.416,0,0,0,.041.023ZM19.568,76.728l-5.1,6.125a1.822,1.822,0,0,1-1.623.643.4.4,0,0,0-.355.141l-.8.957L6.461,80.236l.711-1.878c.628-1.727.421-2.421-.676-4.075l-.732-1.106a.072.072,0,0,1,.018-.089,1.5,1.5,0,0,1,1.138-.222,1.528,1.528,0,0,1,.979.672l.835,1.075,0,0,.515.663a.4.4,0,0,0,.309.154.448.448,0,0,0,.314-.144l4.453-5.353a.79.79,0,0,1,1.215,1.009h0l-2.281,2.742a.4.4,0,1,0,.614.511l2.281-2.742,0,0,1.3-1.565a.79.79,0,1,1,1.214,1.01l-.624.75c-.012.013-.026.022-.037.035S18,71.7,18,71.711l-3.779,4.543a.4.4,0,1,0,.614.511l3.823-4.6a.737.737,0,0,1,.95.084.721.721,0,0,1,.235.953L17.018,76.6l-.026.031h0l-.869,1.045a.4.4,0,1,0,.614.511l.868-1.043h0l1.011-1.206a.62.62,0,0,1,.954.793Zm0,0" transform="translate(-0.5 -64.288)"/><path class="a" d="M97.288,370.56a.679.679,0,1,0,.739.614A.68.68,0,0,0,97.288,370.56Zm0,0" transform="translate(-92.137 -352.644)"/><path class="a" d="M88.059,62.841l2.429.8a.4.4,0,0,0,.249-.759l-2.429-.8a.4.4,0,0,0-.249.759Zm0,0" transform="translate(-83.68 -59.062)"/><path class="a" d="M128.287,18.9a.4.4,0,1,0,.668-.437l-1.092-1.67a.4.4,0,1,0-.668.437Zm0,0" transform="translate(-121.124 -15.81)"/><path class="a" d="M179.809,3.277a.41.41,0,0,0,.082.008.4.4,0,0,0,.391-.317L180.8.482a.4.4,0,0,0-.782-.164L179.5,2.8A.4.4,0,0,0,179.809,3.277Zm0,0" transform="translate(-170.954 -0.001)"/></g></svg>