<?xml version="1.0" encoding="utf-8"?>
<!-- Generator: Adobe Illustrator 23.0.3, SVG Export Plug-In . SVG Version: 6.00 Build 0)  -->
<svg version="1.1" id="Layer_1" xmlns="http://www.w3.org/2000/svg" xmlns:xlink="http://www.w3.org/1999/xlink" x="0px" y="0px"
	 viewBox="0 0 168.2 46" style="enable-background:new 0 0 168.2 46;" xml:space="preserve">
<style type="text/css">
	.st0{enable-background:new    ;}
	.st1{fill:#212324;}
</style>
<g class="st0">
	<path class="st1" d="M12.5,27H2.2V9.2h10.3v3.1H6v3.9h6v3.1H6v4.6h6.5V27z"/>
	<path class="st1" d="M18.5,20l-4.4-6.7h4.2l2.6,4.3l2.7-4.3h4.2L23.4,20l4.7,7h-4.2L21,22.3L18.1,27h-4.2L18.5,20z"/>
	<path class="st1" d="M37.4,27.2c-1.6,0-2.9-0.6-3.8-1.7h-0.2c0.1,1.1,0.2,1.8,0.2,2V33h-3.7V13.4h3l0.5,1.8h0.2
		c0.9-1.4,2.2-2,3.9-2c1.6,0,2.9,0.6,3.8,1.9c0.9,1.2,1.4,3,1.4,5.2c0,1.5-0.2,2.7-0.6,3.8c-0.4,1.1-1,1.9-1.8,2.5
		C39.4,27,38.5,27.2,37.4,27.2z M36.3,16.1c-0.9,0-1.6,0.3-2,0.8c-0.4,0.6-0.6,1.5-0.7,2.8v0.4c0,1.5,0.2,2.5,0.7,3.2
		c0.4,0.6,1.1,1,2.1,1c1.7,0,2.5-1.4,2.5-4.1c0-1.3-0.2-2.4-0.6-3C37.8,16.4,37.2,16.1,36.3,16.1z"/>
	<path class="st1" d="M51.7,27.2c-2.2,0-3.9-0.6-5.2-1.8c-1.2-1.2-1.9-2.9-1.9-5.2s0.6-4.1,1.7-5.3C47.4,13.7,49,13,51,13
		c1.9,0,3.4,0.5,4.5,1.6s1.6,2.6,1.6,4.6V21h-8.8c0,1.1,0.4,1.9,0.9,2.5s1.4,0.9,2.5,0.9c0.8,0,1.6-0.1,2.3-0.3s1.5-0.4,2.3-0.8v2.9
		c-0.7,0.3-1.3,0.6-2.1,0.7C53.6,27.2,52.7,27.2,51.7,27.2z M51.1,15.7c-0.8,0-1.4,0.3-1.9,0.8c-0.4,0.5-0.7,1.2-0.8,2.1h5.2
		c0-0.9-0.3-1.6-0.7-2.1C52.5,16,51.9,15.7,51.1,15.7z"/>
	<path class="st1" d="M67.6,13.1c0.5,0,0.9,0,1.3,0.1l-0.3,3.5c-0.3-0.1-0.7-0.1-1.1-0.1c-1.2,0-2.1,0.3-2.8,0.9
		c-0.7,0.6-1,1.5-1,2.6V27H60V13.4h2.8l0.5,2.3h0.2c0.4-0.8,1-1.4,1.7-1.8C66,13.3,66.8,13.1,67.6,13.1z"/>
	<path class="st1" d="M76.9,24.3c0.7,0,1.4-0.1,2.3-0.4v2.8c-0.9,0.4-2.1,0.6-3.4,0.6c-1.5,0-2.6-0.4-3.3-1.1c-0.7-0.8-1-1.9-1-3.4
		v-6.6h-1.8v-1.6l2.1-1.2l1.1-2.9h2.4v2.9H79v2.8h-3.8v6.6c0,0.5,0.1,0.9,0.4,1.2C76,24.2,76.4,24.3,76.9,24.3z"/>
	<path class="st1" d="M99.4,27h-4.3l-2.4-9.4c-0.1-0.3-0.2-1-0.5-2.1c-0.2-1-0.3-1.7-0.4-2.1c0,0.4-0.2,1.1-0.4,2.1
		s-0.3,1.7-0.5,2.1L88.6,27h-4.3L79.8,9.2h3.7l2.3,9.7c0.4,1.8,0.7,3.4,0.9,4.7c0-0.5,0.2-1.2,0.3-2.2c0.2-1,0.3-1.7,0.5-2.3l2.6-10
		h3.6l2.6,10c0.1,0.4,0.3,1.1,0.4,2.1c0.2,0.9,0.3,1.7,0.4,2.4c0.1-0.6,0.2-1.4,0.4-2.4c0.2-0.9,0.3-1.7,0.5-2.3l2.3-9.7h3.7
		L99.4,27z"/>
	<path class="st1" d="M105.5,9.8c0-1.2,0.7-1.8,2-1.8c1.4,0,2,0.6,2,1.8c0,0.6-0.2,1-0.5,1.3s-0.8,0.5-1.5,0.5
		C106.1,11.7,105.5,11,105.5,9.8z M109.3,27h-3.7V13.4h3.7V27z"/>
	<path class="st1" d="M118.8,24.3c0.7,0,1.4-0.1,2.3-0.4v2.8c-0.9,0.4-2.1,0.6-3.4,0.6c-1.5,0-2.6-0.4-3.3-1.1c-0.7-0.8-1-1.9-1-3.4
		v-6.6h-1.8v-1.6l2.1-1.2l1.1-2.9h2.4v2.9h3.8v2.8h-3.8v6.6c0,0.5,0.1,0.9,0.4,1.2S118.3,24.3,118.8,24.3z"/>
	<path class="st1" d="M136.2,27h-3.7v-8c0-2-0.7-3-2.2-3c-1,0-1.8,0.4-2.3,1.1s-0.7,1.9-0.7,3.4V27h-3.7V8h3.7v3.9
		c0,0.3,0,1-0.1,2.1l-0.1,1.1h0.2c0.8-1.3,2.1-2,4-2c1.6,0,2.8,0.4,3.7,1.3c0.8,0.9,1.2,2.1,1.2,3.7V27z"/>
	<path class="st1" d="M139.6,9.8c0-1.2,0.7-1.8,2-1.8c1.4,0,2,0.6,2,1.8c0,0.6-0.2,1-0.5,1.3s-0.8,0.5-1.5,0.5
		C140.3,11.7,139.6,11,139.6,9.8z M143.5,27h-3.7V13.4h3.7V27z"/>
	<path class="st1" d="M159.8,27H156v-8c0-1-0.2-1.7-0.5-2.2s-0.9-0.7-1.7-0.7c-1,0-1.8,0.3-2.3,1s-0.7,1.8-0.7,3.5V27h-3.7V13.4h2.8
		l0.5,1.7h0.2c0.4-0.7,1-1.2,1.7-1.5s1.6-0.5,2.5-0.5c1.6,0,2.8,0.4,3.6,1.3c0.8,0.9,1.2,2.1,1.2,3.7V27H159.8z"/>
</g>
<polygon class="st1" points="160.9,13 160,13 160,9.3 158.8,9.3 158.8,8.6 162.2,8.6 162.2,9.5 160.9,9.5 "/>
<polygon class="st1" points="164.8,13 163.7,9.7 163.7,9.7 163.7,10.4 163.7,13 162.7,13 162.7,8.6 164.1,8.6 165.1,11.7 166.1,8.6 
	167.5,8.6 167.5,13 166.4,13 166.4,10.4 166.4,9.7 166.4,9.7 165.3,13 "/>
<g class="st0">
	<path class="st1" d="M8.3,39.4c0,1.2-0.3,2.1-1,2.7S5.7,43,4.4,43h-2v-7.1h2.2c1.2,0,2.1,0.3,2.7,0.9S8.3,38.3,8.3,39.4z M6.7,39.4
		c0-1.5-0.7-2.3-2-2.3H3.9v4.6h0.6C6,41.8,6.7,41,6.7,39.4z"/>
	<path class="st1" d="M9.6,36.1c0-0.5,0.3-0.7,0.8-0.7s0.8,0.2,0.8,0.7c0,0.2-0.1,0.4-0.2,0.5c-0.1,0.1-0.3,0.2-0.6,0.2
		C9.9,36.9,9.6,36.6,9.6,36.1z M11.2,43H9.7v-5.5h1.5V43z"/>
	<path class="st1" d="M16.5,41.4c0,0.6-0.2,1-0.6,1.3s-1,0.4-1.7,0.4c-0.4,0-0.7,0-1-0.1s-0.5-0.1-0.8-0.2v-1.2
		c0.3,0.1,0.6,0.2,0.9,0.3S14,42,14.2,42c0.5,0,0.8-0.2,0.8-0.5c0-0.1,0-0.2-0.1-0.3S14.7,41,14.5,41c-0.2-0.1-0.4-0.2-0.7-0.3
		c-0.4-0.2-0.7-0.3-0.9-0.5s-0.3-0.3-0.4-0.5c-0.1-0.2-0.1-0.4-0.1-0.7c0-0.5,0.2-0.9,0.6-1.1c0.4-0.3,0.9-0.4,1.6-0.4
		c0.7,0,1.3,0.1,1.9,0.4L16,39c-0.3-0.1-0.5-0.2-0.8-0.3s-0.5-0.1-0.7-0.1c-0.4,0-0.7,0.1-0.7,0.4c0,0.1,0.1,0.2,0.2,0.3
		s0.5,0.2,0.9,0.4s0.7,0.3,0.9,0.5s0.3,0.3,0.4,0.5S16.5,41.1,16.5,41.4z"/>
	<path class="st1" d="M19.9,43.1c-1.7,0-2.5-0.9-2.5-2.8c0-0.9,0.2-1.6,0.7-2.1s1.1-0.7,2-0.7c0.6,0,1.2,0.1,1.7,0.4L21.3,39
		c-0.2-0.1-0.5-0.2-0.7-0.2c-0.2-0.1-0.4-0.1-0.6-0.1c-0.8,0-1.2,0.5-1.2,1.7c0,1.1,0.4,1.6,1.2,1.6c0.3,0,0.6,0,0.8-0.1
		c0.2-0.1,0.5-0.2,0.7-0.4v1.3c-0.2,0.2-0.5,0.3-0.7,0.3S20.3,43.1,19.9,43.1z"/>
	<path class="st1" d="M27.8,40.3c0,0.9-0.2,1.6-0.7,2.1s-1.1,0.8-2,0.8c-0.5,0-1-0.1-1.4-0.3s-0.7-0.6-0.9-1s-0.3-0.9-0.3-1.5
		c0-0.9,0.2-1.6,0.7-2.1s1.1-0.7,2-0.7c0.5,0,1,0.1,1.4,0.3s0.7,0.6,0.9,1S27.8,39.7,27.8,40.3z M24,40.3c0,0.5,0.1,0.9,0.3,1.2
		s0.5,0.4,0.9,0.4s0.7-0.1,0.9-0.4c0.2-0.3,0.3-0.7,0.3-1.2s-0.1-0.9-0.3-1.2s-0.5-0.4-0.9-0.4s-0.7,0.1-0.9,0.4
		C24.1,39.3,24,39.7,24,40.3z"/>
	<path class="st1" d="M30.3,43l-2.1-5.5h1.6l1.1,3.1c0.1,0.4,0.2,0.8,0.2,1.1l0,0c0-0.3,0.1-0.7,0.2-1.1l1-3.1h1.6L31.8,43H30.3z"/>
	<path class="st1" d="M37.2,43.1c-0.9,0-1.6-0.2-2.1-0.7s-0.7-1.2-0.7-2.1c0-0.9,0.2-1.6,0.7-2.1s1.1-0.7,1.9-0.7
		c0.8,0,1.4,0.2,1.8,0.7s0.6,1,0.6,1.8v0.7h-3.5c0,0.4,0.1,0.8,0.4,1s0.6,0.4,1,0.4c0.3,0,0.6,0,0.9-0.1s0.6-0.2,0.9-0.3v1.2
		c-0.3,0.1-0.5,0.2-0.8,0.3C38,43.1,37.6,43.1,37.2,43.1z M37,38.5c-0.3,0-0.6,0.1-0.7,0.3C36.1,39,36,39.3,36,39.7h2
		c0-0.4-0.1-0.7-0.3-0.9S37.3,38.5,37,38.5z"/>
	<path class="st1" d="M43.7,37.5c0.2,0,0.4,0,0.5,0l-0.1,1.4c-0.1,0-0.3,0-0.4,0c-0.5,0-0.8,0.1-1.1,0.4s-0.4,0.6-0.4,1V43h-1.5
		v-5.5h1.1l0.2,0.9l0,0c0.2-0.3,0.4-0.6,0.7-0.7C43,37.5,43.3,37.5,43.7,37.5z"/>
	<path class="st1" d="M47,37.6h1.6l1,3.1c0.1,0.3,0.1,0.6,0.2,0.9l0,0c0-0.3,0.1-0.7,0.2-0.9l1-3.1h1.6l-2.3,6.2
		c-0.2,0.6-0.5,1-0.9,1.3s-0.9,0.4-1.4,0.4c-0.3,0-0.5,0-0.8-0.1v-1.2c0.2,0,0.4,0.1,0.6,0.1c0.3,0,0.5-0.1,0.7-0.2
		c0.2-0.2,0.4-0.4,0.5-0.7l0.1-0.3L47,37.6z"/>
	<path class="st1" d="M58.4,40.3c0,0.9-0.2,1.6-0.7,2.1s-1.1,0.8-2,0.8c-0.5,0-1-0.1-1.4-0.3s-0.7-0.6-0.9-1s-0.3-0.9-0.3-1.5
		c0-0.9,0.2-1.6,0.7-2.1s1.1-0.7,2-0.7c0.5,0,1,0.1,1.4,0.3s0.7,0.6,0.9,1S58.4,39.7,58.4,40.3z M54.6,40.3c0,0.5,0.1,0.9,0.3,1.2
		s0.5,0.4,0.9,0.4s0.7-0.1,0.9-0.4c0.2-0.3,0.3-0.7,0.3-1.2s-0.1-0.9-0.3-1.2s-0.5-0.4-0.9-0.4s-0.7,0.1-0.9,0.4
		C54.7,39.3,54.6,39.7,54.6,40.3z"/>
	<path class="st1" d="M63.5,43l-0.2-0.7h-0.1c-0.2,0.3-0.4,0.5-0.7,0.6s-0.6,0.2-1,0.2c-0.6,0-1.1-0.2-1.5-0.5
		c-0.3-0.3-0.5-0.8-0.5-1.5v-3.6H61v3.2c0,0.4,0.1,0.7,0.2,0.9c0.1,0.2,0.4,0.3,0.7,0.3c0.4,0,0.7-0.1,0.9-0.4
		c0.2-0.3,0.3-0.7,0.3-1.4v-2.6h1.5V43H63.5z"/>
	<path class="st1" d="M69.3,37.5c0.2,0,0.4,0,0.5,0l-0.1,1.4c-0.1,0-0.3,0-0.4,0c-0.5,0-0.8,0.1-1.1,0.4s-0.4,0.6-0.4,1V43h-1.5
		v-5.5h1.1l0.2,0.9h0.1c0.2-0.3,0.4-0.6,0.7-0.7C68.6,37.5,68.9,37.5,69.3,37.5z"/>
	<path class="st1" d="M75.6,41.9c0.3,0,0.6-0.1,0.9-0.2v1.1C76.1,43,75.7,43,75.1,43s-1-0.2-1.3-0.5s-0.4-0.8-0.4-1.4v-2.6h-0.7V38
		l0.8-0.5l0.4-1.2h1v1.2h1.5v1.1H75v2.6c0,0.2,0.1,0.4,0.2,0.5S75.5,41.9,75.6,41.9z"/>
	<path class="st1" d="M81.2,43l-0.3-0.7l0,0c-0.3,0.3-0.5,0.5-0.8,0.7c-0.3,0.1-0.6,0.2-1,0.2c-0.5,0-0.9-0.1-1.2-0.4
		s-0.5-0.7-0.5-1.3s0.2-1,0.6-1.3s1-0.4,1.8-0.5h0.9v-0.2c0-0.6-0.3-0.8-0.8-0.8c-0.4,0-0.9,0.1-1.5,0.4l-0.5-1
		c0.6-0.3,1.3-0.5,2.1-0.5c0.7,0,1.3,0.2,1.7,0.5s0.6,0.8,0.6,1.5V43H81.2z M80.7,40.5h-0.6c-0.4,0-0.8,0.1-1,0.2s-0.3,0.4-0.3,0.7
		c0,0.4,0.2,0.6,0.7,0.6c0.3,0,0.6-0.1,0.8-0.3s0.3-0.5,0.3-0.8L80.7,40.5L80.7,40.5z"/>
	<path class="st1" d="M85.2,43h-1.5v-7.6h1.5V43z"/>
	<path class="st1" d="M89.3,43.1c-0.9,0-1.6-0.2-2.1-0.7s-0.7-1.2-0.7-2.1c0-0.9,0.2-1.6,0.7-2.1s1.1-0.7,1.9-0.7s1.4,0.2,1.8,0.7
		s0.6,1,0.6,1.8v0.7H88c0,0.4,0.1,0.8,0.4,1s0.6,0.4,1,0.4c0.3,0,0.6,0,0.9-0.1s0.6-0.2,0.9-0.3v1.2c-0.3,0.1-0.5,0.2-0.8,0.3
		C90,43.1,89.7,43.1,89.3,43.1z M89,38.5c-0.3,0-0.6,0.1-0.7,0.3C88.1,39,88,39.3,88,39.7h2.1c0-0.4-0.1-0.7-0.3-0.9
		C89.6,38.6,89.4,38.5,89,38.5z"/>
	<path class="st1" d="M97.7,43h-1.5v-3.2c0-0.4-0.1-0.7-0.2-0.9s-0.4-0.3-0.7-0.3c-0.4,0-0.7,0.1-0.9,0.4c-0.2,0.3-0.3,0.7-0.3,1.4
		V43h-1.5v-5.5h1.1l0.2,0.7H94c0.2-0.3,0.4-0.5,0.7-0.6c0.3-0.1,0.6-0.2,1-0.2c0.6,0,1.1,0.2,1.4,0.5s0.5,0.8,0.5,1.5V43H97.7z"/>
	<path class="st1" d="M101.6,41.9c0.3,0,0.6-0.1,0.9-0.2v1.1c-0.4,0.2-0.8,0.2-1.4,0.2s-1-0.2-1.3-0.5s-0.4-0.8-0.4-1.4v-2.6h-0.7
		V38l0.8-0.5l0.4-1.2h1v1.2h1.5v1.1h-1.5v2.6c0,0.2,0.1,0.4,0.2,0.5C101.2,41.9,101.4,41.9,101.6,41.9z"/>
	<path class="st1" d="M107.4,41.4c0,0.6-0.2,1-0.6,1.3s-1,0.4-1.7,0.4c-0.4,0-0.7,0-1-0.1s-0.5-0.1-0.8-0.2v-1.2
		c0.3,0.1,0.6,0.2,0.9,0.3s0.7,0.1,0.9,0.1c0.5,0,0.8-0.2,0.8-0.5c0-0.1,0-0.2-0.1-0.3s-0.2-0.2-0.4-0.2c-0.2-0.1-0.4-0.2-0.7-0.3
		c-0.4-0.2-0.7-0.3-0.9-0.5c-0.2-0.1-0.3-0.3-0.4-0.5s-0.1-0.4-0.1-0.7c0-0.5,0.2-0.9,0.6-1.1c0.4-0.3,0.9-0.4,1.6-0.4
		s1.3,0.1,1.9,0.4L107,39c-0.3-0.1-0.5-0.2-0.8-0.3c-0.2-0.1-0.5-0.1-0.7-0.1c-0.4,0-0.7,0.1-0.7,0.4c0,0.1,0.1,0.2,0.2,0.3
		s0.5,0.2,0.9,0.4s0.7,0.3,0.9,0.5c0.2,0.1,0.3,0.3,0.4,0.5C107.4,40.9,107.4,41.1,107.4,41.4z"/>
	<path class="st1" d="M111.1,36.1c0-0.5,0.3-0.7,0.8-0.7s0.8,0.2,0.8,0.7c0,0.2-0.1,0.4-0.2,0.5s-0.3,0.2-0.6,0.2
		C111.4,36.9,111.1,36.6,111.1,36.1z M112.7,43h-1.5v-5.5h1.5V43z"/>
	<path class="st1" d="M119.3,43h-1.5v-3.2c0-0.4-0.1-0.7-0.2-0.9s-0.4-0.3-0.7-0.3c-0.4,0-0.7,0.1-0.9,0.4c-0.2,0.3-0.3,0.7-0.3,1.4
		V43h-1.5v-5.5h1.1l0.2,0.7h0.1c0.2-0.3,0.4-0.5,0.7-0.6c0.3-0.1,0.6-0.2,1-0.2c0.6,0,1.1,0.2,1.4,0.5s0.5,0.8,0.5,1.5V43H119.3z"/>
	<path class="st1" d="M123.1,41.9c0.3,0,0.6-0.1,0.9-0.2v1.1c-0.4,0.2-0.8,0.2-1.4,0.2s-1-0.2-1.3-0.5s-0.4-0.8-0.4-1.4v-2.6h-0.7
		V38l0.8-0.5l0.4-1.2h1v1.2h1.5v1.1h-1.5v2.6c0,0.2,0.1,0.4,0.2,0.5C122.7,41.9,122.9,41.9,123.1,41.9z"/>
	<path class="st1" d="M127.6,43.1c-0.9,0-1.6-0.2-2.1-0.7s-0.7-1.2-0.7-2.1c0-0.9,0.2-1.6,0.7-2.1s1.1-0.7,1.9-0.7
		c0.8,0,1.4,0.2,1.8,0.7s0.6,1,0.6,1.8v0.7h-3.5c0,0.4,0.1,0.8,0.4,1s0.6,0.4,1,0.4c0.3,0,0.6,0,0.9-0.1s0.6-0.2,0.9-0.3v1.2
		c-0.3,0.1-0.5,0.2-0.8,0.3C128.4,43.1,128,43.1,127.6,43.1z M127.4,38.5c-0.3,0-0.6,0.1-0.7,0.3c-0.2,0.2-0.3,0.5-0.3,0.9h2.1
		c0-0.4-0.1-0.7-0.3-0.9S127.7,38.5,127.4,38.5z"/>
	<path class="st1" d="M134.1,37.5c0.2,0,0.4,0,0.5,0l-0.1,1.4c-0.1,0-0.3,0-0.4,0c-0.5,0-0.8,0.1-1.1,0.4c-0.3,0.2-0.4,0.6-0.4,1V43
		H131v-5.5h1.1l0.2,0.9h0.1c0.2-0.3,0.4-0.6,0.7-0.7C133.4,37.5,133.8,37.5,134.1,37.5z"/>
	<path class="st1" d="M140.6,43h-1.5v-3.2c0-0.4-0.1-0.7-0.2-0.9c-0.1-0.2-0.4-0.3-0.7-0.3c-0.4,0-0.7,0.1-0.9,0.4
		c-0.2,0.3-0.3,0.7-0.3,1.4V43h-1.5v-5.5h1.1l0.2,0.7h0.1c0.2-0.3,0.4-0.5,0.7-0.6s0.6-0.2,1-0.2c0.6,0,1.1,0.2,1.4,0.5
		c0.3,0.3,0.5,0.8,0.5,1.5L140.6,43L140.6,43z"/>
	<path class="st1" d="M145.6,43l-0.3-0.7l0,0c-0.3,0.3-0.5,0.5-0.8,0.7c-0.3,0.1-0.6,0.2-1,0.2c-0.5,0-0.9-0.1-1.2-0.4
		c-0.3-0.3-0.5-0.7-0.5-1.3s0.2-1,0.6-1.3c0.4-0.3,1-0.4,1.8-0.5h0.9v-0.2c0-0.6-0.3-0.8-0.8-0.8c-0.4,0-0.9,0.1-1.5,0.4l-0.5-1
		c0.6-0.3,1.3-0.5,2.1-0.5c0.7,0,1.3,0.2,1.7,0.5s0.6,0.8,0.6,1.5V43H145.6z M145.2,40.5h-0.6c-0.4,0-0.8,0.1-1,0.2
		c-0.2,0.1-0.3,0.4-0.3,0.7c0,0.4,0.2,0.6,0.7,0.6c0.3,0,0.6-0.1,0.8-0.3s0.3-0.5,0.3-0.8v-0.4H145.2z"/>
	<path class="st1" d="M149.7,43h-1.5v-7.6h1.5V43z"/>
	<path class="st1" d="M152.7,43h-1.5v-7.6h1.5V43z"/>
	<path class="st1" d="M153.5,37.6h1.6l1,3.1c0.1,0.3,0.1,0.6,0.2,0.9l0,0c0-0.3,0.1-0.7,0.2-0.9l1-3.1h1.6l-2.3,6.2
		c-0.2,0.6-0.5,1-0.9,1.3s-0.9,0.4-1.4,0.4c-0.3,0-0.5,0-0.8-0.1v-1.2c0.2,0,0.4,0.1,0.6,0.1c0.3,0,0.5-0.1,0.7-0.2
		c0.2-0.2,0.4-0.4,0.5-0.7l0.1-0.3L153.5,37.6z"/>
</g>
</svg>
