<?xml version="1.0" encoding="utf-8"?>
<!-- Generator: Adobe Illustrator 24.0.1, SVG Export Plug-In . SVG Version: 6.00 Build 0)  -->
<svg version="1.1" id="Layer_1" xmlns="http://www.w3.org/2000/svg" xmlns:xlink="http://www.w3.org/1999/xlink" x="0px" y="0px"
	 viewBox="0 0 168.2 29" style="enable-background:new 0 0 168.2 29;" xml:space="preserve">
<style type="text/css">
	.st0{enable-background:new    ;}
	.st1{fill:#FFFFFF;}
</style>
<g class="st0">
	<path class="st1" d="M12.5,22H2.2V4.2h10.3v3.1H6v3.9h6v3.1H6v4.6h6.5V22z"/>
	<path class="st1" d="M18.5,15l-4.4-6.7h4.2l2.6,4.3l2.7-4.3h4.2L23.4,15l4.7,7h-4.2L21,17.3L18.1,22h-4.2L18.5,15z"/>
	<path class="st1" d="M37.4,22.2c-1.6,0-2.9-0.6-3.8-1.7h-0.2c0.1,1.1,0.2,1.8,0.2,2V28h-3.7V8.4h3l0.5,1.8h0.2c0.9-1.4,2.2-2,3.9-2
		c1.6,0,2.9,0.6,3.8,1.9c0.9,1.2,1.4,3,1.4,5.2c0,1.5-0.2,2.7-0.6,3.8c-0.4,1.1-1,1.9-1.8,2.5C39.4,22,38.5,22.2,37.4,22.2z
		 M36.3,11.1c-0.9,0-1.6,0.3-2,0.8c-0.4,0.6-0.6,1.5-0.7,2.8v0.4c0,1.5,0.2,2.5,0.7,3.2c0.4,0.6,1.1,1,2.1,1c1.7,0,2.5-1.4,2.5-4.1
		c0-1.3-0.2-2.4-0.6-3C37.8,11.4,37.2,11.1,36.3,11.1z"/>
	<path class="st1" d="M51.7,22.2c-2.2,0-3.9-0.6-5.2-1.8c-1.2-1.2-1.9-2.9-1.9-5.2s0.6-4.1,1.7-5.3S49,8,51,8c1.9,0,3.4,0.5,4.5,1.6
		s1.6,2.6,1.6,4.6V16h-8.8c0,1.1,0.4,1.9,0.9,2.5s1.4,0.9,2.5,0.9c0.8,0,1.6-0.1,2.3-0.3s1.5-0.4,2.3-0.8v2.9
		c-0.7,0.3-1.3,0.6-2.1,0.7C53.6,22.2,52.7,22.2,51.7,22.2z M51.1,10.7c-0.8,0-1.4,0.3-1.9,0.8c-0.4,0.5-0.7,1.2-0.8,2.1h5.2
		c0-0.9-0.3-1.6-0.7-2.1C52.5,11,51.9,10.7,51.1,10.7z"/>
	<path class="st1" d="M67.6,8.1c0.5,0,0.9,0,1.3,0.1l-0.3,3.5c-0.3-0.1-0.7-0.1-1.1-0.1c-1.2,0-2.1,0.3-2.8,0.9
		c-0.7,0.6-1,1.5-1,2.6V22H60V8.4h2.8l0.5,2.3h0.2c0.4-0.8,1-1.4,1.7-1.8C66,8.3,66.8,8.1,67.6,8.1z"/>
	<path class="st1" d="M76.9,19.3c0.7,0,1.4-0.1,2.3-0.4v2.8c-0.9,0.4-2.1,0.6-3.4,0.6c-1.5,0-2.6-0.4-3.3-1.1c-0.7-0.8-1-1.9-1-3.4
		v-6.6h-1.8V9.6l2.1-1.2l1.1-2.9h2.4v2.9H79v2.8h-3.8v6.6c0,0.5,0.1,0.9,0.4,1.2C76,19.2,76.4,19.3,76.9,19.3z"/>
	<path class="st1" d="M99.4,22h-4.3l-2.4-9.4c-0.1-0.3-0.2-1-0.5-2.1c-0.2-1-0.3-1.7-0.4-2.1c0,0.4-0.2,1.1-0.4,2.1
		s-0.3,1.7-0.5,2.1L88.6,22h-4.3L79.8,4.2h3.7l2.3,9.7c0.4,1.8,0.7,3.4,0.9,4.7c0-0.5,0.2-1.2,0.3-2.2c0.2-1,0.3-1.7,0.5-2.3l2.6-10
		h3.6l2.6,10c0.1,0.4,0.3,1.1,0.4,2.1c0.2,0.9,0.3,1.7,0.4,2.4c0.1-0.6,0.2-1.4,0.4-2.4c0.2-0.9,0.3-1.7,0.5-2.3l2.3-9.7h3.7
		L99.4,22z"/>
	<path class="st1" d="M105.5,4.8c0-1.2,0.7-1.8,2-1.8c1.4,0,2,0.6,2,1.8c0,0.6-0.2,1-0.5,1.3s-0.8,0.5-1.5,0.5
		C106.1,6.7,105.5,6,105.5,4.8z M109.3,22h-3.7V8.4h3.7V22z"/>
	<path class="st1" d="M118.8,19.3c0.7,0,1.4-0.1,2.3-0.4v2.8c-0.9,0.4-2.1,0.6-3.4,0.6c-1.5,0-2.6-0.4-3.3-1.1c-0.7-0.8-1-1.9-1-3.4
		v-6.6h-1.8V9.6l2.1-1.2l1.1-2.9h2.4v2.9h3.8v2.8h-3.8v6.6c0,0.5,0.1,0.9,0.4,1.2S118.3,19.3,118.8,19.3z"/>
	<path class="st1" d="M136.2,22h-3.7v-8c0-2-0.7-3-2.2-3c-1,0-1.8,0.4-2.3,1.1s-0.7,1.9-0.7,3.4V22h-3.7V3h3.7v3.9
		c0,0.3,0,1-0.1,2.1l-0.1,1.1h0.2c0.8-1.3,2.1-2,4-2c1.6,0,2.8,0.4,3.7,1.3c0.8,0.9,1.2,2.1,1.2,3.7V22z"/>
	<path class="st1" d="M139.6,4.8c0-1.2,0.7-1.8,2-1.8c1.4,0,2,0.6,2,1.8c0,0.6-0.2,1-0.5,1.3s-0.8,0.5-1.5,0.5
		C140.3,6.7,139.6,6,139.6,4.8z M143.5,22h-3.7V8.4h3.7V22z"/>
	<path class="st1" d="M159.8,22H156v-8c0-1-0.2-1.7-0.5-2.2s-0.9-0.7-1.7-0.7c-1,0-1.8,0.3-2.3,1s-0.7,1.8-0.7,3.5V22h-3.7V8.4h2.8
		l0.5,1.7h0.2c0.4-0.7,1-1.2,1.7-1.5s1.6-0.5,2.5-0.5c1.6,0,2.8,0.4,3.6,1.3c0.8,0.9,1.2,2.1,1.2,3.7V22H159.8z"/>
</g>
<polygon class="st1" points="160.9,8 160,8 160,4.3 158.8,4.3 158.8,3.6 162.2,3.6 162.2,4.5 160.9,4.5 "/>
<polygon class="st1" points="164.8,8 163.7,4.7 163.7,4.7 163.7,5.4 163.7,8 162.7,8 162.7,3.6 164.1,3.6 165.1,6.7 166.1,3.6 
	167.5,3.6 167.5,8 166.4,8 166.4,5.4 166.4,4.7 166.4,4.7 165.3,8 "/>
</svg>
